# xmcd
#
# Track frame offsets:
# 150
# 13922
# 26906
# 46465
# 60995
# 73544
# 91990
# 113732
# 129308
# 148458
# 166893
# 182455
# 208301
# 224149
# 238232
# 252848
# 265278
# 301704
# 321814
#
# Disc length: 4530 seconds
#
# Revision: 0
# Processed by: cddbd v1.4b42PL1 Copyright (c) Steve Scherf et al.
# Submitted via: Audion 2.5.0 (http://www.panic.com/audion/)
#
DISCID=1e11b013
DTITLE=dfs - compil le champ
DYEAR=1900
DGENRE=
TTITLE0=sdfsdvdssdcxsvx
TTITLE1=vxwfv
TTITLE2=xfv
TTITLE3=xvxvfx
TTITLE4=vxwv
TTITLE5=dfv
TTITLE6=xwvxwvdwv
TTITLE7=wxv
TTITLE8=xwvxcv
TTITLE9=dfvdxwvx
TTITLE10=vswdv
TTITLE11=vxfv
TTITLE12=dfwxdwfvw
TTITLE13=fvdfv
TTITLE14=vxvwx
TTITLE15=fvwxv
TTITLE16=dfsvwd
TTITLE17=vxwv
TTITLE18=sdwvwfdv
EXTD=
EXTT0=
EXTT1=
EXTT2=
EXTT3=
EXTT4=
EXTT5=
EXTT6=
EXTT7=
EXTT8=
EXTT9=
EXTT10=
EXTT11=
EXTT12=
EXTT13=
EXTT14=
EXTT15=
EXTT16=
EXTT17=
EXTT18=
PLAYORDER=
